<svg xmlns="http://www.w3.org/2000/svg" viewBox="0 0 64 64"><g id="_27-Winner" data-name="27-Winner"><polygon points="49.17 6.09 46.34 11.19 46 11 18 11 17.5 11.27 14.75 6.13 15 6 49 6 49.17 6.09" style="fill:#593a75"/><polygon points="52 1 49.17 6.09 49 6 15 6 14.75 6.13 12 1 52 1" style="fill:#774e9d"/><path d="M52,1l3.62,5.68L44.13,27.1a19.92,19.92,0,0,0-5.07-2.81l7.28-13.1,2.83-5.1Z" style="fill:#9c59a9"/><path d="M17.5,11.27l7.06,13.17a19.725,19.725,0,0,0-4.69,2.66L8.38,6.68,12,1l2.75,5.13Z" style="fill:#9c59a9"/><path d="M55.62,6.68,59,12,48.02,31.03a19.844,19.844,0,0,0-3.89-3.93Z" style="fill:#593a75"/><path d="M8.38,6.68,19.87,27.1a19.682,19.682,0,0,0-4.31,4.52L5,12Z" style="fill:#593a75"/><path d="M48.02,31.03a20,20,0,1,1-32.46.59,19.981,19.981,0,0,1,23.5-7.33,19.979,19.979,0,0,1,8.96,6.74ZM48,43A16,16,0,1,0,32,59,16,16,0,0,0,48,43Z" style="fill:#ff9102"/><path d="M32,27A16,16,0,1,1,16,43,16,16,0,0,1,32,27Z" style="fill:#ffe378"/><path d="M22,39a15.925,15.925,0,0,1,4.362-10.959A15.99,15.99,0,1,0,43.638,53.959,15.967,15.967,0,0,1,22,39Z" style="fill:#ffcb02"/><polygon points="28 38 21 39 32 43 28 38" style="fill:#ffda4d"/><polygon points="21 39 26 45 32 43 21 39" style="fill:#ffab02"/><polygon points="32 43 24 53 32 49.24 32 49 32 43" style="fill:#ff9102"/><polygon points="26 45 24 53 32 43 26 45" style="fill:#ffcb02"/><polygon points="40 53 38 45 32 43 40 53" style="fill:#ffcb02"/><polygon points="32 49 32 49.24 40 53 32 43 32 49" style="fill:#ffab02"/><polygon points="43 39 36 38 32 43 43 39" style="fill:#ffcb02"/><polygon points="32 43 38 45 43 39 32 43" style="fill:#ffab02"/><polygon points="32 31 28 38 32 43 32 31" style="fill:#ffcb02"/><polygon points="36 38 32 31 32 43 36 38" style="fill:#ffda4d"/><path d="M44.13,27.1,46.6,22.7a23.432,23.432,0,0,0-5.054-2.894L39.06,24.29A19.92,19.92,0,0,1,44.13,27.1Z" style="fill:#774e9d"/><path d="M19.87,27.1a19.725,19.725,0,0,1,4.69-2.66L22.343,20.3A23.508,23.508,0,0,0,17.7,23.248Z" style="fill:#774e9d"/><path d="M46.6,22.7,44.13,27.1a19.844,19.844,0,0,1,3.89,3.93l2.6-4.5A23.685,23.685,0,0,0,46.6,22.7Z" style="fill:#422b57"/><path d="M19.87,27.1,17.7,23.248a23.65,23.65,0,0,0-4.238,4.479l2.1,3.893A19.682,19.682,0,0,1,19.87,27.1Z" style="fill:#422b57"/><path d="M32,25A18,18,0,1,0,50,43,18,18,0,0,0,32,25Zm0,34A16,16,0,1,1,48,43,16,16,0,0,1,32,59Z" style="fill:#ff7802"/><path d="M43.75,6l-.263.7A2,2,0,0,1,41.614,8H22.386a2,2,0,0,1-1.873-1.3L20.25,6H15l-.25.13,2.75,5.14L18,11H46l.34.19,2.83-5.1L49,6Z" style="fill:#422b57"/><polygon points="20.25 6 18.375 1 12 1 14.75 6.13 15 6 20.25 6" style="fill:#593a75"/><polygon points="45.625 1 43.75 6 49 6 49.17 6.09 52 1 45.625 1" style="fill:#593a75"/><path d="M59.844,11.464l-7-11A.99.99,0,0,0,52,0V0H12V0a.977.977,0,0,0-.843.459l-7,11a1,1,0,0,0-.036,1.01L14.4,31.578a21,21,0,1,0,34.8-.591L59.866,12.5A1,1,0,0,0,59.844,11.464ZM54.453,6.715,43.8,25.643A20.981,20.981,0,0,0,40.475,23.8L52.059,2.953Zm-29.417,16.5L16.35,7H47.523L38.591,23.075a20.676,20.676,0,0,0-13.555.137ZM48.634,5H15.278L13.67,2H50.3ZM11.925,2.978,23.174,23.971A21.031,21.031,0,0,0,20.2,25.643L9.547,6.715ZM6.158,12.042,8.329,8.629,18.587,26.858a21.159,21.159,0,0,0-2.882,2.921ZM32,62A19,19,0,1,1,51,43,19.021,19.021,0,0,1,32,62ZM47.87,29.289a21.206,21.206,0,0,0-2.457-2.431L55.67,8.629l2.161,3.4Z"/><rect x="20" y="10" width="24" height="2"/><path d="M46.884,41.123l1.984-.246a16.77,16.77,0,0,0-.4-2.126l-1.936.5A14.985,14.985,0,0,1,46.884,41.123Z"/><path d="M32,26A17,17,0,1,0,49,43H47a14.986,14.986,0,1,1-1.09-5.625l1.854-.75A16.937,16.937,0,0,0,32,26Z"/><path d="M43.933,38.64a1,1,0,0,0-.791-.63l-6.517-.931L32.868,30.5a1.04,1.04,0,0,0-1.736,0l-3.757,6.575-6.517.931a1,1,0,0,0-.629,1.628l4.678,5.649L23.03,52.756a1,1,0,0,0,1.395,1.149L32,50.347l7.575,3.558a1,1,0,0,0,1.395-1.149l-1.877-7.469,4.678-5.649A1,1,0,0,0,43.933,38.64Zm-6.7,5.762a1.006,1.006,0,0,0-.2.882L38.516,51.2l-6.091-2.861a1,1,0,0,0-.85,0L25.484,51.2l1.486-5.914a1.006,1.006,0,0,0-.2-.882l-3.862-4.665,5.233-.747a1,1,0,0,0,.726-.494L32,33.016l3.132,5.48a1,1,0,0,0,.726.494l5.233.747Z"/></g></svg>